<svg width="102" height="102" viewBox="0 0 102 102" fill="none" xmlns="http://www.w3.org/2000/svg">
<path d="M41.5573 78.6509L23.5261 60.6197C23.5261 60.6197 24.407 59.2984 25.9899 57.0731L11.5053 42.5885L35.5469 30.5676L41.8779 36.8987C44.6026 33.78 44.5208 33.6146 47.5677 30.5676C49.636 28.4994 51.875 26.7158 54.1987 25.1778C68.7566 15.5416 86.6354 15.5416 86.6354 15.5416C86.6354 15.5416 86.6354 33.4204 76.9992 47.9783C75.4612 50.302 73.6776 52.541 71.6094 54.6093C68.5624 57.6562 68.3971 57.5744 65.2784 60.2991L71.6094 66.6301L59.5885 90.6717L45.104 76.1871C42.8786 77.77 41.5573 78.6509 41.5573 78.6509Z" fill="#FF5656"/>
<path d="M30.1 85.875C33.9 81.875 33.8 75.575 29.9 71.775C26 68.075 19.9 68.075 16 71.775C12 75.575 7 94.775 7 94.775C7 94.775 26.2 89.775 30.1 85.875Z" fill="#9D70F9"/>
<path d="M30 78.7758C31.7 76.5758 31.2 73.4758 29 71.7758C27.2 70.4758 24.8 70.4758 23 71.7758C21 73.7758 18 83.7758 18 83.7758C18 83.7758 28.1 80.7758 30 78.7758Z" fill="#FF5656"/>
</svg>
