<svg width="102" height="102" viewBox="0 0 102 102" fill="none" xmlns="http://www.w3.org/2000/svg">
<path fill-rule="evenodd" clip-rule="evenodd" d="M46 13C62.5685 13 76 26.4312 76 42.9998C76 52.5655 76 62.1706 76 68C76 83 86 88 86 88L6 88C6 88 16 83 16 68C16 62.1706 16 52.5655 16 42.9998C16 26.4312 29.4315 13 46 13V13Z" fill="#9D70F9"/>
<path fill-rule="evenodd" clip-rule="evenodd" d="M36 88C36 93.5228 40.4772 98 46 98C51.5228 98 56 93.5228 56 88" fill="#9D70F9"/>
<path d="M34 61.8793V40H42.0893C43.263 40 44.3204 40.2396 45.2615 40.7189C46.2132 41.1877 46.964 41.865 47.5138 42.7505C48.0742 43.6257 48.3545 44.6624 48.3545 45.8605C48.3545 46.3919 48.2752 46.9284 48.1165 47.4702C47.9579 48.012 47.7147 48.5017 47.3869 48.9393C47.0591 49.3664 46.6362 49.6842 46.118 49.8926C46.8053 50.0593 47.3658 50.3614 47.7993 50.799C48.2329 51.2366 48.5712 51.7523 48.8144 52.3462C49.0576 52.9296 49.2215 53.5287 49.3061 54.1434C49.4013 54.7477 49.4489 55.3103 49.4489 55.8312C49.4489 56.9877 49.1581 58.0192 48.5765 58.9256C47.9949 59.832 47.2124 60.5509 46.229 61.0823C45.2562 61.6136 44.1777 61.8793 42.9933 61.8793H34ZM37.8702 58.613H42.5968C43.2313 58.613 43.8023 58.462 44.3098 58.1598C44.8174 57.8577 45.2245 57.4409 45.5312 56.9096C45.8378 56.3782 45.9911 55.7739 45.9911 55.0967C45.9911 54.5133 45.8378 53.9611 45.5312 53.4401C45.2245 52.9192 44.8174 52.4973 44.3098 52.1743C43.8023 51.8513 43.2313 51.6898 42.5968 51.6898H37.8702V58.613ZM37.8702 48.4704H41.6451C42.4276 48.4704 43.0938 48.2308 43.6437 47.7515C44.2041 47.2723 44.4843 46.6367 44.4843 45.8449C44.4843 45.001 44.2041 44.3654 43.6437 43.9383C43.0938 43.5007 42.4276 43.2819 41.6451 43.2819H37.8702V48.4704Z" fill="white"/>
<path d="M52.4747 61.8793V40H56.3448V61.8793H52.4747Z" fill="white"/>
</svg>
