<svg width="102" height="102" viewBox="0 0 102 102" fill="none" xmlns="http://www.w3.org/2000/svg">
<path d="M41.5571 78.6509L23.5259 60.6197C23.5259 60.6197 24.4067 59.2984 25.9896 57.0731L11.505 42.5885L35.5467 30.5676L41.8777 36.8987C44.6023 33.78 44.5205 33.6146 47.5675 30.5676C49.6357 28.4994 51.8748 26.7158 54.1984 25.1778C68.7564 15.5416 86.6351 15.5416 86.6351 15.5416C86.6351 15.5416 86.6351 33.4204 76.999 47.9783C75.4609 50.302 73.6774 52.541 71.6091 54.6093C68.5621 57.6562 68.3968 57.5744 65.2781 60.2991L71.6091 66.6301L59.5883 90.6717L45.1037 76.1871C42.8784 77.77 41.5571 78.6509 41.5571 78.6509Z" fill="#FF5656"/>
<path d="M30.1 85.875C33.9 81.875 33.8 75.575 29.9 71.775C26 68.075 19.9 68.075 16 71.775C12 75.575 7 94.775 7 94.775C7 94.775 26.2 89.775 30.1 85.875Z" fill="#9D70F9"/>
<path d="M30 78.7758C31.7 76.5758 31.2 73.4758 29 71.7758C27.2 70.4758 24.8 70.4758 23 71.7758C21 73.7758 18 83.7758 18 83.7758C18 83.7758 28.1 80.7758 30 78.7758Z" fill="#FF5656"/>
<path d="M30.702 56.4458L44.647 43.0257L49.7274 48.3049C50.4623 49.0685 50.9676 49.9125 51.2432 50.8368C51.5254 51.7547 51.5502 52.671 51.3175 53.5855C51.0913 54.5067 50.5897 55.3412 49.8128 56.0889C49.5206 56.37 49.1767 56.6307 48.781 56.8708C48.3919 57.1045 47.9685 57.2626 47.5107 57.345C47.0528 57.4275 46.5781 57.3728 46.0864 57.1808C46.4083 57.728 46.5478 58.2717 46.5049 58.8118C46.4619 59.352 46.3086 59.8705 46.0448 60.3673C45.7941 60.8644 45.4921 61.3213 45.1386 61.7382C44.7918 62.1487 44.4624 62.5041 44.1503 62.8045C43.4464 63.4819 42.6234 63.9093 41.6815 64.0868C40.7461 64.2579 39.7991 64.1908 38.8403 63.8856C37.8881 63.5741 37.0414 63.0331 36.3001 62.2628L30.702 56.4458ZM36.1077 56.9992L38.5234 59.5093C38.8557 59.8546 39.2357 60.09 39.6635 60.2156C40.1043 60.3413 40.5473 60.3498 40.9926 60.2411C41.4443 60.1389 41.8528 59.9121 42.218 59.5606C42.5235 59.2667 42.7293 58.9023 42.8354 58.4677C42.9545 58.0333 42.963 57.5902 42.8609 57.1385C42.7651 56.6935 42.5511 56.2983 42.2188 55.953L39.8032 53.4429L36.1077 56.9992ZM42.2933 51.0464L44.153 52.9788C44.5364 53.3772 44.9983 53.5914 45.5387 53.6213C46.0791 53.6513 46.5519 53.4713 46.957 53.0815C47.3687 52.6853 47.5467 52.2389 47.491 51.7425C47.4354 51.2461 47.2158 50.7987 46.8324 50.4002L44.9728 48.4679L42.2933 51.0464ZM41.671 67.8438L55.616 54.4237L58.4917 57.4119L44.5467 70.832L41.671 67.8438Z" fill="white"/>
</svg>
