<svg width="148" height="134" viewBox="0 0 148 134" fill="none" xmlns="http://www.w3.org/2000/svg">
<circle cx="104.616" cy="16.0809" r="13.931" transform="rotate(5.00757 104.616 16.0809)" fill="#7C53D1" stroke="#1A1A1A"/>
<circle cx="133.138" cy="66.1849" r="13.931" fill="#7C53D1" stroke="#1A1A1A"/>
<circle cx="14.431" cy="66.1849" r="13.931" fill="#7C53D1" stroke="#1A1A1A"/>
<circle cx="44.7145" cy="15.2953" r="13.931" transform="rotate(-3.5485 44.7145 15.2953)" fill="#7C53D1" stroke="#1A1A1A"/>
<circle cx="103.32" cy="118.006" r="13.931" transform="rotate(-3.5485 103.32 118.006)" fill="#7C53D1" stroke="#1A1A1A"/>
<circle cx="42.9522" cy="117.222" r="13.931" transform="rotate(5.00757 42.9522 117.222)" fill="#7C53D1" stroke="#1A1A1A"/>
<circle cx="74.2155" cy="66.3679" r="34.2155" fill="#7C53D1"/>
<path fill-rule="evenodd" clip-rule="evenodd" d="M105.226 126.505L38.2195 8.69388L41.8613 6.62256L108.868 124.434L105.226 126.505Z" fill="#7C53D1"/>
<path fill-rule="evenodd" clip-rule="evenodd" d="M40.3625 125.628L110.347 9.56148L106.759 7.3981L36.7746 123.465L40.3625 125.628Z" fill="#7C53D1"/>
<path fill-rule="evenodd" clip-rule="evenodd" d="M134.769 68.7443H12.5703V64.5547H134.769V68.7443Z" fill="#7C53D1"/>
<path d="M63 77.0277V55.1484H71.0893C72.263 55.1484 73.3204 55.3881 74.2615 55.8673C75.2132 56.3362 75.964 57.0134 76.5138 57.899C77.0742 58.7742 77.3545 59.8108 77.3545 61.009C77.3545 61.5403 77.2752 62.0769 77.1165 62.6187C76.9579 63.1604 76.7147 63.6501 76.3869 64.0877C76.0591 64.5149 75.6362 64.8326 75.118 65.041C75.8053 65.2077 76.3658 65.5099 76.7993 65.9474C77.2329 66.385 77.5712 66.9008 77.8144 67.4946C78.0576 68.0781 78.2215 68.6771 78.3061 69.2918C78.4013 69.8961 78.4489 70.4587 78.4489 70.9797C78.4489 72.1362 78.1581 73.1676 77.5765 74.074C76.9949 74.9805 76.2124 75.6994 75.229 76.2307C74.2562 76.7621 73.1777 77.0277 71.9933 77.0277H63ZM66.8702 73.7615H71.5968C72.2313 73.7615 72.8023 73.6104 73.3098 73.3083C73.8174 73.0061 74.2245 72.5894 74.5312 72.058C74.8378 71.5267 74.9911 70.9224 74.9911 70.2452C74.9911 69.6617 74.8378 69.1095 74.5312 68.5886C74.2245 68.0676 73.8174 67.6457 73.3098 67.3227C72.8023 66.9997 72.2313 66.8382 71.5968 66.8382H66.8702V73.7615ZM66.8702 63.6189H70.6451C71.4276 63.6189 72.0938 63.3792 72.6437 62.9C73.2041 62.4207 73.4843 61.7852 73.4843 60.9933C73.4843 60.1494 73.2041 59.5139 72.6437 59.0867C72.0938 58.6491 71.4276 58.4303 70.6451 58.4303H66.8702V63.6189Z" fill="white"/>
<path d="M81.4747 77.0277V55.1484H85.3448V77.0277H81.4747Z" fill="white"/>
</svg>
