<svg width="192" height="192" viewBox="0 0 192 192" fill="none" xmlns="http://www.w3.org/2000/svg">
<path d="M52.2 140V56H84C88.6 56 92.76 56.96 96.48 58.88C100.2 60.76 103.14 63.44 105.3 66.92C107.5 70.4 108.6 74.48 108.6 79.16C108.6 80.92 108.38 82.78 107.94 84.74C107.5 86.66 106.72 88.46 105.6 90.14C104.48 91.82 102.88 93.14 100.8 94.1C103.48 94.74 105.6 95.94 107.16 97.7C108.72 99.46 109.88 101.5 110.64 103.82C111.44 106.1 111.96 108.42 112.2 110.78C112.44 113.1 112.56 115.2 112.56 117.08C112.56 121.32 111.42 125.18 109.14 128.66C106.86 132.1 103.8 134.86 99.96 136.94C96.12 138.98 91.88 140 87.24 140H52.2ZM70.2 124.76H85.32C87.4 124.76 89.28 124.28 90.96 123.32C92.68 122.32 94.04 120.96 95.04 119.24C96.08 117.52 96.6 115.56 96.6 113.36C96.6 111.52 96.08 109.78 95.04 108.14C94.04 106.46 92.68 105.1 90.96 104.06C89.28 103.02 87.4 102.5 85.32 102.5H70.2V124.76ZM70.2 87.5H81.84C84.24 87.5 86.3 86.7 88.02 85.1C89.74 83.5 90.6 81.48 90.6 79.04C90.6 76.56 89.74 74.66 88.02 73.34C86.3 72.02 84.24 71.36 81.84 71.36H70.2V87.5ZM120.858 140V56H138.858V140H120.858Z" fill="#111111"/>
<path d="M192 96C192 149.019 149.019 192 96 192C42.9807 192 0 149.019 0 96C0 42.9807 42.9807 0 96 0C149.019 0 192 42.9807 192 96ZM18.8227 96C18.8227 138.624 53.3761 173.177 96 173.177C138.624 173.177 173.177 138.624 173.177 96C173.177 53.3761 138.624 18.8227 96 18.8227C53.3761 18.8227 18.8227 53.3761 18.8227 96Z" fill="#111111"/>
<path d="M192 96C192 83.3931 189.517 70.9096 184.692 59.2624C179.868 47.6151 172.797 37.0322 163.882 28.1177C154.968 19.2033 144.385 12.132 132.738 7.30756C121.09 2.48311 108.607 -5.51065e-07 96 0L109.25 9.5L96 19C106.086 19 116.072 21.1865 125.39 25.046C134.708 28.9056 143.174 34.5627 150.306 41.6942C157.437 48.8257 163.094 57.2921 166.954 66.6099C170.814 75.9277 173 85.9145 173 96L182.4 109.5L192 96Z" fill="#9D70F9"/>
<path d="M7.63192e-07 96C-3.38938e-07 108.607 2.48312 121.09 7.30757 132.738C12.132 144.385 19.2033 154.968 28.1177 163.882C37.0322 172.797 47.6151 179.868 59.2624 184.692C70.9096 189.517 83.3931 192 96 192L83.5 182.4L96 172.8C85.9145 172.8 75.9277 170.814 66.6099 166.954C57.2921 163.094 48.8257 157.437 41.6942 150.306C34.5627 143.174 28.9056 134.708 25.046 125.39C21.1865 116.072 19 106.086 19 96L9.60002 83L7.63192e-07 96Z" fill="#FA5252"/>
</svg>
